<svg data-v-0dd9719b="" version="1.0" xmlns="http://www.w3.org/2000/svg" xmlns:xlink="http://www.w3.org/1999/xlink" width="100%" height="100%" viewBox="0 0 340.000000 250.000000" preserveAspectRatio="xMidYMid meet" color-interpolation-filters="sRGB" style="margin: auto;"> <rect data-v-0dd9719b="" x="0" y="0" width="100%" height="100%" fill="#fff" fill-opacity="1" class="background"></rect> <rect data-v-0dd9719b="" x="0" y="0" width="100%" height="100%" fill="url(#watermark)" fill-opacity="1" class="watermarklayer"></rect> <g data-v-0dd9719b="" fill="#fd9f30" class="icon-text-wrapper icon-svg-group iconsvg" transform="translate(47.409996032714844,88.32249069213867)"><g class="iconsvg-imagesvg" transform="translate(0,0)"><g><rect fill="#fd9f30" fill-opacity="0" stroke-width="2" x="0" y="0" width="60" height="73.35501381519427" class="image-rect"></rect> <svg x="0" y="0" width="60" height="73.35501381519427" filtersec="colorsb6885236834" class="image-svg-svg primary" style="overflow: visible;"><svg xmlns="http://www.w3.org/2000/svg" viewBox="-0.008144378662109375 0 145.589111328125 177.99403381347656"><title>资源 70</title><g><path d="M138.28 0v38.52c-1.95.09-3.87.27-5.79.26q-39.73-.06-79.49-.17c-7.28 0-11.35 2.27-13.33 7.46-2.24 5.86.23 10.17 4.38 14.22 9.51 9.31 18.84 18.82 28.37 28.39l27.16-27.63c5.88 6 10.87 11 15.89 16.08 5.17 5.2 10.5 10.25 15.52 15.58 14.39 15.28 18.3 33.22 11 52.66-7.41 19.68-22.35 31.33-43.53 32-29.29 1-58.63.47-87.95.58a28.67 28.67 0 0 1-2.93-.35c-.13-1.67-.35-3.25-.36-4.84 0-9.33.19-18.66-.11-28-.14-4.33 1.06-5.72 5.55-5.66 26.15.31 52.31.32 78.46.41a35 35 0 0 0 6-.25c8.88-1.53 13.26-12.32 7.15-18.83C94.23 109.8 83.59 99.71 72.8 89l-26.7 27.19a24.54 24.54 0 0 1-2.57-1.87C33.75 104.55 23.68 95 14.3 84.89-.47 68.91-4 50.19 4.62 30.29 13.15 10.56 29 .44 50.66.24c27-.24 54-.17 81-.24z" fill="#fd9f30"></path></g></svg></svg> <!----></g></g> <g transform="translate(67,12.186260223388672)"><g data-gra="path-name" fill-rule="" class="tp-name iconsvg-namesvg" transform="translate(0,0)"><g transform="scale(1)"><g><path d="M28.83-26.3L30.94-28.55 34.31-25.73 34.31-25.45 18.56-25.45Q14.48-18 12.09-14.91L12.09-14.91 12.38-14.63 25.88-14.63Q27-16.31 27.14-16.31L27.14-16.31Q29.11-15.05 30.09-14.2L30.09-14.2Q30.09-14.2 29.53-13.64L29.53-13.64Q28.55-12.8 28.55-12.66L28.55-12.66 28.69 2.11Q27.28 3.09 26.16 3.23L26.16 3.23 26.16-0.84 11.81-0.84 11.81 1.69Q10.55 2.67 9.28 2.95L9.28 2.95Q9.7-3.52 9.7-11.95L9.7-11.95Q4.36-6.75 1.13-4.92L1.13-4.92 0.84-5.48Q11.11-13.78 15.33-25.45L15.33-25.45 4.78-25.45 3.23-25.31 2.81-26.3 28.83-26.3ZM26.16-1.69L26.16-13.78 13.5-13.78Q11.67-13.92 11.81-12.23L11.81-12.23 11.81-1.69 26.16-1.69ZM50.48-29.39L50.63-29.67Q53.72-29.39 55.83-27.56L55.83-27.56Q56.53-26.16 54.7-24.75L54.7-24.75 65.11-24.75Q65.25-24.75 65.95-25.73L65.95-25.73Q66.8-26.58 66.8-26.58L66.8-26.58Q69.47-24.75 70.31-23.63L70.31-23.63Q70.31-23.48 69.75-23.48L69.75-23.48Q66.8-23.2 63.7-20.39L63.7-20.39 63.42-20.81Q66.09-24.05 65.53-23.91L65.53-23.91 42.89-23.91Q42.61-20.25 41.06-18.98L41.06-18.98Q39.8-18.14 38.95-18.7L38.95-18.7Q38.11-19.27 38.67-20.39L38.67-20.39Q38.81-20.67 39.38-21.09L39.38-21.09Q41.63-22.92 42.19-26.16L42.19-26.16 42.47-26.16 42.75-24.75 53.58-24.75Q52.73-28.13 50.48-29.39L50.48-29.39ZM59.91-19.41L61.73-21.52 64.69-18.84 64.55-18.56 55.69-18.56Q55.69-18.28 55.41-18.28L55.41-18.28Q54-17.86 51.61-15.75L51.61-15.75Q54.42-13.5 55.83-10.83L55.83-10.83Q60.05-13.36 64.41-17.72L64.41-17.72Q66.94-15.19 66.8-15.05L66.8-15.05Q66.66-14.91 66.52-15.05L66.52-15.05Q65.67-15.19 64.27-14.48L64.27-14.48Q61.31-12.66 58.64-11.25L58.64-11.25Q61.73-3.23 71.02-1.27L71.02-1.27 71.02-0.84Q68.06-0.98 67.36 0.84L67.36 0.84Q67.22 0.98 67.22 0.98L67.22 0.98Q60.05-3.23 57.94-10.97L57.94-10.97 56.11-10.13Q56.95-7.88 57.09-4.22L57.09-4.22Q57.09-0.7 56.25 1.13L56.25 1.13Q54.98 3.66 51.89 4.36L51.89 4.36Q51.89 4.36 51.89 4.22L51.89 4.22Q51.75 1.83 47.95 0.7L47.95 0.7 47.95 0.42Q48.52 0.42 49.36 0.56L49.36 0.56Q52.17 0.98 53.16 0.84L53.16 0.84Q55.69-0.42 54.98-7.31L54.98-7.31Q46.83 0.42 37.41 3.23L37.41 3.23 37.27 2.81Q47.39-1.69 54.42-9.98L54.42-9.98Q54.42-11.11 53.44-12.09L53.44-12.09Q46.13-5.63 38.11-2.53L38.11-2.53 37.97-2.95Q47.95-8.72 52.03-14.06L52.03-14.06Q51.75-14.48 51.05-15.19L51.05-15.19Q45.14-10.97 38.11-8.86L38.11-8.86 38.11-9.42Q47.53-13.64 51.75-18.56L51.75-18.56 45.84-18.56 44.16-18.42 43.45-19.41 59.91-19.41ZM87.89-28.97L88.17-29.25Q91.41-28.13 92.67-26.16L92.67-26.16Q93.09-25.17 91.27-23.48L91.27-23.48 100.83-23.48 102.66-25.73 105.75-22.92 105.61-22.64 79.88-22.64Q79.73-8.16 78.47-4.22L78.47-4.22Q77.48 0.56 72.98 4.08L72.98 4.08 72.84 3.52Q76.22-0.14 76.92-5.63L76.92-5.63Q77.77-10.83 77.06-25.17L77.06-25.17Q79.73-23.91 80.3-23.48L80.3-23.48 90.28-23.48Q89.72-27 87.89-28.97L87.89-28.97ZM90.98-12.23L90.98-22.22Q94.5-21.09 94.5-20.95L94.5-20.95Q94.5-20.81 93.94-20.25L93.94-20.25Q93.38-19.69 93.38-19.55L93.38-19.55 93.38-12.23 99-12.23 100.83-14.48 104.06-11.53 103.92-11.39 93.38-11.39 93.38 0.84 100.97 0.84 103.08-1.55 106.45 1.41 106.31 1.69 80.3 1.69 78.89 1.83 78.19 0.84 90.98 0.84 90.98-11.39 83.39-11.39 81.98-11.11 81.42-12.23 90.98-12.23ZM114.75-29.11L114.75-29.11Q117.98-27.42 117.98-27.28L117.98-27.28Q117.98-27.28 117.7-27L117.7-27Q116.58-26.44 116.44-26.02L116.44-26.02Q116.16-25.31 115.73-24.19L115.73-24.19Q115.17-22.64 115.03-22.08L115.03-22.08 119.39-22.08 121.22-23.77 123.61-21.38 123.61-21.23 114.75-21.23Q114.47-20.67 113.77-19.27L113.77-19.27Q112.36-16.59 112.22-16.17L112.22-16.17 119.11-16.17 120.66-17.86 123.05-15.75 123.05-15.33 117-15.33 117-9.84 119.81-9.84 121.08-11.39 123.33-9.28 123.33-9 117-9 117-1.13 122.77-5.06 123.19-4.78Q116.72 1.55 116.02 3.23L116.02 3.23Q115.88 3.38 115.88 3.38L115.88 3.38Q115.03 3.23 113.48 1.69L113.48 1.69Q113.48 1.69 113.77 1.41L113.77 1.41Q114.89 0.14 114.89-0.42L114.89-0.42 114.89-9 111.23-9 109.97-8.72 109.27-9.84 114.89-9.84 114.89-15.33 111.66-15.33Q110.67-13.78 108.98-11.39L108.98-11.39 108.56-11.67Q112.78-19.27 114.75-29.11ZM124.59-27.42L124.59-27.42Q124.73-27.56 127.41-25.73L127.41-25.73 135.28-25.73Q135.42-25.73 136.69-27.28L136.69-27.28Q138.38-26.16 139.36-25.17L139.36-25.17Q139.36-25.03 138.38-24.19L138.38-24.19Q137.95-23.91 137.95-23.91L137.95-23.91 138.09-12.09Q137.25-11.39 135.84-11.11L135.84-11.11 135.84-12.52 130.22-12.52Q131.2-8.58 132.75-5.91L132.75-5.91Q134.44-7.03 139.22-11.39L139.22-11.39Q141.33-8.86 141.19-8.72L141.19-8.72Q141.05-8.72 140.77-8.72L140.77-8.72Q139.78-9 139.08-8.58L139.08-8.58Q135.56-6.61 133.31-5.06L133.31-5.06Q136.27-1.13 142.73 0.7L142.73 0.7 142.73 1.13Q140.63 0.98 139.5 2.53L139.5 2.53Q139.36 2.81 139.22 2.81L139.22 2.81Q130.64-2.11 129.38-12.52L129.38-12.52 126.56-12.52 126.7 0.28 132.61-1.69 132.89-1.13Q127.13 1.97 125.44 3.52L125.44 3.52Q125.3 3.8 125.16 3.8L125.16 3.8Q123.33 2.53 123.05 2.11L123.05 2.11Q123.05 2.11 123.33 1.83L123.33 1.83Q124.31 0.98 124.45 0.28L124.45 0.28Q124.59-3.66 124.59-8.58L124.59-8.58Q124.59-10.97 124.59-15.05L124.59-15.05Q124.59-18.14 124.59-27.42ZM135.84-24.89L127.83-24.89Q126.56-24.89 126.56-24.05L126.56-24.05Q126.56-23.91 126.56-23.77L126.56-23.77 126.56-19.55 135.84-19.55 135.84-24.89ZM135.84-13.36L135.84-18.7 126.56-18.7 126.56-13.36 135.84-13.36ZM149.48-28.55L150.05-28.55Q150.05-27.56 150.19-27.14L150.19-27.14 173.81-27.14Q174.09-27.14 174.66-27.98L174.66-27.98Q175.08-28.55 175.22-28.55L175.22-28.55Q178.17-27 178.45-25.59L178.45-25.59Q178.45-25.45 177.89-25.45L177.89-25.45Q175.22-25.31 172.69-23.06L172.69-23.06 172.13-23.48Q174.66-26.44 174.09-26.3L174.09-26.3 160.45-26.3Q160.88-25.88 162-25.03L162-25.03Q162.98-24.33 162.84-24.19L162.84-24.19Q162.7-24.05 162.14-23.91L162.14-23.91Q161.58-23.77 161.3-23.34L161.3-23.34Q161.3-23.34 161.16-23.2L161.16-23.2Q159.89-21.52 159.33-20.39L159.33-20.39 169.31-20.39 171.28-22.36 173.95-19.83 173.95-19.69 158.91-19.69 153.7-11.39 161.3-11.39 161.3-18.28Q163.83-17.16 164.67-16.59L164.67-16.59Q164.67-16.45 163.97-15.89L163.97-15.89Q163.55-15.61 163.55-15.61L163.55-15.61 163.55-11.39 169.17-11.39 171.14-13.64 174.23-10.83 174.09-10.69 163.55-10.69 163.55-5.34 173.39-5.34 175.64-7.73 179.02-4.78 178.88-4.5 163.55-4.5 163.69 3.09Q162.56 4.08 161.3 4.36L161.3 4.36 161.3-4.5 146.95-4.5 145.69-4.22 144.98-5.34 161.3-5.34 161.3-10.69 153.42-10.69Q153.14-10.69 152.44-9.98L152.44-9.98Q151.88-9.42 151.73-9.42L151.73-9.42Q150.75-10.27 150.19-11.53L150.19-11.53Q150.19-11.53 150.47-11.67L150.47-11.67Q151.31-11.95 152.02-12.8L152.02-12.8Q154.55-16.31 156.38-19.69L156.38-19.69 151.73-19.69 150.61-19.41 149.91-20.39 156.94-20.39Q157.36-21.23 158.48-23.34L158.48-23.34Q159.61-25.45 160.03-26.3L160.03-26.3 150.19-26.3Q149.77-21.66 148.5-21.23L148.5-21.23Q145.97-20.53 145.83-22.22L145.83-22.22Q145.83-22.5 146.53-22.92L146.53-22.92Q148.92-24.89 149.48-28.55L149.48-28.55Z" transform="translate(-0.8400000333786011, 29.670000076293945)"></path></g> <!----> <!----> <!----> <!----> <!----> <!----> <!----></g></g> <g data-gra="path-slogan" fill-rule="" class="tp-slogan iconsvg-slogansvg" fill="#fd9f30" transform="translate(3.7741775512695312,40.029998779296875)"><rect width="0"></rect> <rect x="173.63165283203125" width="0"></rect> <g transform="translate(0,0)"><g transform="scale(1)"><path d="M7.17-6.09L7.17-6.09L6.09-6.09Q6-7.73 3.94-7.83L3.94-7.83Q2.02-7.78 2.02-6.33L2.02-6.33Q2.02-5.39 3.05-5.25L3.05-5.25L5.48-4.69Q7.41-4.22 7.41-2.34L7.41-2.34Q7.36 0.05 4.03 0.14L4.03 0.14Q2.20 0.14 1.45-0.61L1.45-0.61Q0.52-1.31 0.56-2.77L0.56-2.77L1.69-2.77Q1.73-0.80 4.03-0.75L4.03-0.75Q6.28-0.80 6.33-2.20L6.33-2.20Q6.52-3.38 4.45-3.75L4.45-3.75L2.67-4.13Q0.84-4.64 0.84-6.19L0.84-6.19Q0.98-8.72 3.84-8.81L3.84-8.81Q7.08-8.81 7.17-6.09ZM10.03-5.06L14.53-5.06L14.53-8.58L15.70-8.58L15.70 0L14.53 0L14.53-3.98L10.03-3.98L10.03 0L8.86 0L8.86-8.58L10.03-8.58L10.03-5.06ZM17.67-8.58L18.84-8.58L18.84 0L17.67 0L17.67-8.58ZM20.11-1.92L20.11-2.77L21.19-2.77L21.19-2.16Q21.19-0.75 22.50-0.75L22.50-0.75Q23.86-0.75 23.86-2.25L23.86-2.25L23.86-8.58L25.03-8.58L25.03-2.30Q24.98 0.09 22.55 0.14L22.55 0.14Q20.25 0.09 20.11-1.92L20.11-1.92ZM27-8.58L28.17-8.58L28.17 0L27 0L27-8.58ZM35.81 0L34.97-2.48L31.50-2.48L30.61 0L29.44 0L32.67-8.58L33.98-8.58L37.08 0L35.81 0ZM33.23-7.31L31.88-3.52L34.55-3.52L33.28-7.31L33.23-7.31ZM38.95-1.03L44.25-1.03L44.25 0L37.50 0L37.50-0.94L42.75-7.59L37.88-7.59L37.88-8.58L44.25-8.58L44.25-7.59L38.95-1.03ZM46.55-5.06L51.05-5.06L51.05-8.58L52.22-8.58L52.22 0L51.05 0L51.05-3.98L46.55-3.98L46.55 0L45.38 0L45.38-8.58L46.55-8.58L46.55-5.06ZM59.67-3.19L59.67-8.58L60.84-8.58L60.84-3.05Q60.70 0.05 57.33 0.14L57.33 0.14Q54.19 0.05 54.05-2.86L54.05-2.86L54.05-8.58L55.22-8.58L55.22-3.19Q55.27-0.84 57.38-0.80L57.38-0.80Q59.67-0.84 59.67-3.19L59.67-3.19ZM68.30 0L67.45-2.48L63.98-2.48L63.09 0L61.92 0L65.16-8.58L66.47-8.58L69.56 0L68.30 0ZM65.72-7.31L64.36-3.52L67.03-3.52L65.77-7.31L65.72-7.31ZM72-8.58L76.31-1.64L76.31-8.58L77.44-8.58L77.44 0L76.13 0L71.77-6.94L71.72-6.94L71.72 0L70.59 0L70.59-8.58L72-8.58ZM85.64-3.61L83.02-3.61L83.02-4.59L86.77-4.59L86.77 0L86.02 0L85.73-1.08Q84.75 0.09 82.92 0.14L82.92 0.14Q81.19 0.14 80.25-0.75L80.25-0.75Q78.84-2.06 78.89-4.36L78.89-4.36Q79.22-8.63 82.97-8.81L82.97-8.81Q86.16-8.63 86.63-6L86.63-6L85.50-6Q85.03-7.78 82.92-7.83L82.92-7.83Q80.25-7.64 80.11-4.31L80.11-4.31Q80.11-0.75 82.97-0.75L82.97-0.75Q84-0.75 84.75-1.31L84.75-1.31Q85.69-2.06 85.64-3.61L85.64-3.61ZM98.16-6.09L98.16-6.09L97.08-6.09Q96.98-7.73 94.92-7.83L94.92-7.83Q93-7.78 93-6.33L93-6.33Q93-5.39 94.03-5.25L94.03-5.25L96.47-4.69Q98.39-4.22 98.39-2.34L98.39-2.34Q98.34 0.05 95.02 0.14L95.02 0.14Q93.19 0.14 92.44-0.61L92.44-0.61Q91.50-1.31 91.55-2.77L91.55-2.77L92.67-2.77Q92.72-0.80 95.02-0.75L95.02-0.75Q97.27-0.80 97.31-2.20L97.31-2.20Q97.50-3.38 95.44-3.75L95.44-3.75L93.66-4.13Q91.83-4.64 91.83-6.19L91.83-6.19Q91.97-8.72 94.83-8.81L94.83-8.81Q98.06-8.81 98.16-6.09ZM100.03-8.58L101.20-8.58L101.20 0L100.03 0L100.03-8.58ZM103.17-8.58L104.34-8.58L104.34-1.03L108.70-1.03L108.70 0L103.17 0L103.17-8.58ZM110.48-8.58L112.92-1.27L115.41-8.58L116.72-8.58L113.58 0L112.31 0L109.17-8.58L110.48-8.58ZM119.11-1.03L124.27-1.03L124.27 0L117.94 0L117.94-8.58L124.17-8.58L124.17-7.59L119.11-7.59L119.11-4.92L123.80-4.92L123.80-3.89L119.11-3.89L119.11-1.03ZM129.89-3.70L127.08-3.70L127.08 0L125.91 0L125.91-8.58L129.89-8.58Q132.75-8.58 132.75-6.28L132.75-6.28Q132.75-4.88 131.53-4.22L131.53-4.22Q132.56-3.94 132.56-2.58L132.56-2.58L132.66-1.03Q132.61-0.38 133.08-0.19L133.08-0.19L133.08 0L131.63 0Q131.48-0.61 131.44-2.16L131.44-2.16Q131.48-3.70 129.89-3.70L129.89-3.70ZM129.98-7.64L127.08-7.64L127.08-4.69L129.80-4.69Q131.53-4.69 131.53-6.19L131.53-6.19Q131.53-7.64 129.98-7.64L129.98-7.64ZM143.39 0L142.55-2.48L139.08-2.48L138.19 0L137.02 0L140.25-8.58L141.56-8.58L144.66 0L143.39 0ZM140.81-7.31L139.45-3.52L142.13-3.52L140.86-7.31L140.81-7.31ZM149.81-3.70L147-3.70L147 0L145.83 0L145.83-8.58L149.81-8.58Q152.67-8.58 152.67-6.28L152.67-6.28Q152.67-4.88 151.45-4.22L151.45-4.22Q152.48-3.94 152.48-2.58L152.48-2.58L152.58-1.03Q152.53-0.38 153-0.19L153-0.19L153 0L151.55 0Q151.41-0.61 151.36-2.16L151.36-2.16Q151.41-3.70 149.81-3.70L149.81-3.70ZM149.91-7.64L147-7.64L147-4.69L149.72-4.69Q151.45-4.69 151.45-6.19L151.45-6.19Q151.45-7.64 149.91-7.64L149.91-7.64ZM162.56-8.58L162.56 0L161.44 0L161.44-5.06Q161.44-5.77 161.44-7.22L161.44-7.22L159 0L157.83 0L155.44-7.22L155.39-7.22Q155.39-6.70 155.44-5.67L155.44-5.67Q155.44-5.16 155.44-5.06L155.44-5.06L155.44 0L154.27 0L154.27-8.58L155.95-8.58L158.44-1.31L160.88-8.58L162.56-8.58ZM171.19-8.58L167.95-3.47L167.95 0L166.78 0L166.78-3.47L163.55-8.58L164.91-8.58L167.34-4.45L169.83-8.58L171.19-8.58Z" transform="translate(-0.5602678571428572, 8.8125)"></path></g></g></g></g></g><defs v-gra="od"></defs></svg>